<?xml version="1.0" encoding="UTF-8"?>
<svg xmlns="http://www.w3.org/2000/svg" xmlns:xlink="http://www.w3.org/1999/xlink" width="632pt" height="590pt" viewBox="0 0 632 590" version="1.1">
<defs>
<clipPath id="clip0">
  <rect width="632" height="590"/>
</clipPath>
</defs>
<g id="surface0" clip-path="url(#clip0)">
<path style="fill: none; stroke-width: 0.1; stroke-linecap: butt; stroke-linejoin: miter; stroke: rgb(99.607849%,99.607849%,99.607849%); opacity: 1;stroke-miterlimit: 10;" d="M 0 0 L 298.509155 0 C 274.736465 1.904785 250.937958 5.60466 228.318863 13.35466 C 220.57312 15.733353 214.354172 21.180939 208.072632 26.039215 C 197.475464 34.489853 186.793488 42.832321 176.08284 51.13739 C 175.897339 99.088318 176.027969 147.039078 176.010727 194.990845 C 219.334106 195.009659 262.656982 195.019165 305.981598 194.982895 C 306.021729 172.99144 306.025818 151.001923 305.984039 129.012085 C 277.297012 128.665329 248.579025 129.824097 219.921356 128.181946 C 223.426407 126.167099 226.634506 123.045059 231.052094 123.38707 C 255.909271 122.066406 280.827225 123.62735 305.708298 122.800552 C 306.155304 103.630219 306.146896 84.451874 305.750641 65.28183 C 276.774323 64.691269 247.792847 65.193283 218.815857 64.892502 C 220.621964 62.971542 222.430695 61.051117 224.239273 59.127121 C 251.396149 58.831024 278.556671 59.239273 305.714066 58.759857 C 306.134064 39.176208 306.25235 19.579163 305.580368 0 L 310.997818 0 C 311.015625 64.998932 310.97403 129.996872 311.011032 194.996124 C 345.338638 195.008118 379.66626 195.018219 413.996201 194.991074 C 413.981155 162.396667 414.086105 129.803696 413.932312 97.210464 C 408.923828 94.187561 403.970505 91.077026 399.038483 87.938843 C 399.040665 87.221848 399.045029 85.787872 399.047211 85.070877 C 403.990601 82.274994 408.944153 79.499924 413.937866 76.784119 C 414.044281 54.049316 413.998734 31.315582 414.052231 8.5811 C 392.591736 1.438934 369.682846 2.145279 347.439819 0 L 632 0 L 632 590 L 0 590 L 0 0 Z M 0 0 " transform="matrix(1,0,0,1,0,0)"/>
<path style="stroke: none; fill-rule: nonzero; fill: rgb(99.607849%,99.607849%,99.607849%); opacity: 1;" d="M 0 0 L 298.509155 0 C 274.736465 1.904785 250.937958 5.60466 228.318863 13.35466 C 220.57312 15.733353 214.354172 21.180939 208.072632 26.039215 C 197.475464 34.489853 186.793488 42.832321 176.08284 51.13739 C 175.897339 99.088318 176.027969 147.039078 176.010727 194.990845 C 219.334106 195.009659 262.656982 195.019165 305.981598 194.982895 C 306.021729 172.99144 306.025818 151.001923 305.984039 129.012085 C 277.297012 128.665329 248.579025 129.824097 219.921356 128.181946 C 223.426407 126.167099 226.634506 123.045059 231.052094 123.38707 C 255.909271 122.066406 280.827225 123.62735 305.708298 122.800552 C 306.155304 103.630219 306.146896 84.451874 305.750641 65.28183 C 276.774323 64.691269 247.792847 65.193283 218.815857 64.892502 C 220.621964 62.971542 222.430695 61.051117 224.239273 59.127121 C 251.396149 58.831024 278.556671 59.239273 305.714066 58.759857 C 306.134064 39.176208 306.25235 19.579163 305.580368 0 L 310.997818 0 C 311.015625 64.998932 310.97403 129.996872 311.011032 194.996124 C 345.338638 195.008118 379.66626 195.018219 413.996201 194.991074 C 413.981155 162.396667 414.086105 129.803696 413.932312 97.210464 C 408.923828 94.187561 403.970505 91.077026 399.038483 87.938843 C 399.040665 87.221848 399.045029 85.787872 399.047211 85.070877 C 403.990601 82.274994 408.944153 79.499924 413.937866 76.784119 C 414.044281 54.049316 413.998734 31.315582 414.052231 8.5811 C 392.591736 1.438934 369.682846 2.145279 347.439819 0 L 632 0 L 632 590 L 0 590 L 0 0 Z M 0 0 "/>
<path style="fill: none; stroke-width: 0.1; stroke-linecap: butt; stroke-linejoin: miter; stroke: rgb(0.784314%,0.784314%,0.784314%); opacity: 1;stroke-miterlimit: 10;" d="M 298.509155 0 L 305.580368 0 C 306.25235 19.579163 306.134064 39.176208 305.714066 58.759857 C 278.556671 59.239273 251.396149 58.831024 224.239273 59.127121 C 222.430695 61.051117 220.621964 62.971542 218.815857 64.892502 C 247.792847 65.193283 276.774323 64.691269 305.750641 65.28183 C 306.146896 84.451874 306.155304 103.630219 305.708298 122.800552 C 280.827225 123.62735 255.909271 122.066406 231.052094 123.38707 C 226.634506 123.045059 223.426407 126.167099 219.921356 128.181946 C 248.579025 129.824097 277.297012 128.665329 305.984039 129.012085 C 306.025818 151.001923 306.021729 172.99144 305.981598 194.982895 C 262.656982 195.019165 219.334106 195.009659 176.010727 194.990845 C 176.027969 147.039078 175.897339 99.088318 176.08284 51.13739 C 186.793488 42.832321 197.475464 34.489853 208.072632 26.039215 C 214.354172 21.180939 220.57312 15.733353 228.318863 13.35466 C 250.937958 5.60466 274.736465 1.904785 298.509155 0 Z M 298.509155 0 " transform="matrix(1,0,0,1,0,0)"/>
<path style="stroke: none; fill-rule: nonzero; fill: rgb(0.784314%,0.784314%,0.784314%); opacity: 1;" d="M 298.509155 0 L 305.580368 0 C 306.25235 19.579163 306.134064 39.176208 305.714066 58.759857 C 278.556671 59.239273 251.396149 58.831024 224.239273 59.127121 C 222.430695 61.051117 220.621964 62.971542 218.815857 64.892502 C 247.792847 65.193283 276.774323 64.691269 305.750641 65.28183 C 306.146896 84.451874 306.155304 103.630219 305.708298 122.800552 C 280.827225 123.62735 255.909271 122.066406 231.052094 123.38707 C 226.634506 123.045059 223.426407 126.167099 219.921356 128.181946 C 248.579025 129.824097 277.297012 128.665329 305.984039 129.012085 C 306.025818 151.001923 306.021729 172.99144 305.981598 194.982895 C 262.656982 195.019165 219.334106 195.009659 176.010727 194.990845 C 176.027969 147.039078 175.897339 99.088318 176.08284 51.13739 C 186.793488 42.832321 197.475464 34.489853 208.072632 26.039215 C 214.354172 21.180939 220.57312 15.733353 228.318863 13.35466 C 250.937958 5.60466 274.736465 1.904785 298.509155 0 Z M 298.509155 0 "/>
<path style="fill: none; stroke-width: 0.1; stroke-linecap: butt; stroke-linejoin: miter; stroke: rgb(0.784314%,0.784314%,0.784314%); opacity: 1;stroke-miterlimit: 10;" d="M 310.997818 0 L 347.439819 0 C 369.682846 2.145279 392.591736 1.438934 414.052231 8.5811 C 413.998734 31.315582 414.044281 54.049316 413.937866 76.784119 C 408.944153 79.499924 403.990601 82.274994 399.047211 85.070877 C 399.045029 85.787872 399.040665 87.221848 399.038483 87.938843 C 403.970505 91.077026 408.923828 94.187561 413.932312 97.210464 C 414.086105 129.803696 413.981155 162.396667 413.996201 194.991074 C 379.66626 195.018219 345.338638 195.008118 311.011032 194.996124 C 310.97403 129.996872 311.015625 64.998932 310.997818 0 Z M 310.997818 0 " transform="matrix(1,0,0,1,0,0)"/>
<path style="stroke: none; fill-rule: nonzero; fill: rgb(0.784314%,0.784314%,0.784314%); opacity: 1;" d="M 310.997818 0 L 347.439819 0 C 369.682846 2.145279 392.591736 1.438934 414.052231 8.5811 C 413.998734 31.315582 414.044281 54.049316 413.937866 76.784119 C 408.944153 79.499924 403.990601 82.274994 399.047211 85.070877 C 399.045029 85.787872 399.040665 87.221848 399.038483 87.938843 C 403.970505 91.077026 408.923828 94.187561 413.932312 97.210464 C 414.086105 129.803696 413.981155 162.396667 413.996201 194.991074 C 379.66626 195.018219 345.338638 195.008118 311.011032 194.996124 C 310.97403 129.996872 311.015625 64.998932 310.997818 0 Z M 310.997818 0 "/>
<path style="fill: none; stroke-width: 0.1; stroke-linecap: butt; stroke-linejoin: miter; stroke: rgb(0.784314%,0.784314%,0.784314%); opacity: 1;stroke-miterlimit: 10;" d="M 420.06871 9.774841 C 428.883636 12.891388 437.717255 15.993561 446.326172 19.659363 C 460.071075 25.540405 472.069229 34.619308 484.973801 42.037766 C 506.949554 55.740143 529.365021 68.767075 551.023758 82.961929 C 550.674622 106.320404 551.689331 129.717163 550.522446 153.055817 C 526.998001 153.222504 503.468521 152.567032 479.955368 153.129288 C 475.018372 151.99852 471.971878 156.172531 468.425552 158.582764 C 495.941254 159.467041 523.477661 158.78569 551.006088 159.009064 C 550.98497 168.663727 551.005707 178.321198 550.997559 187.979614 C 541.99321 187.989868 532.997559 188.00267 524.006424 188.018005 C 523.996033 204.357208 523.999542 220.697159 523.99881 237.0392 C 512.840637 242.134109 499.977005 244.964951 487.996048 240.958817 C 475.570175 238.720398 465.260605 229.231232 460.103073 217.963959 C 456.510376 210.813934 455.774857 202.700424 454.084946 194.990952 C 442.720581 194.986938 431.364151 194.988068 420.008057 194.995514 C 419.988861 159.332535 419.988342 123.671143 420.008255 88.009033 C 445.030304 87.772369 470.058899 88.340515 495.080246 87.970047 C 498.444214 87.880814 500.873657 85.093048 503.661255 83.55983 C 475.790894 82.377945 447.888855 83.277679 420.006973 82.990936 C 420.015091 58.585007 419.91362 34.180054 420.06871 9.774841 Z M 420.06871 9.774841 " transform="matrix(1,0,0,1,0,0)"/>
<path style="stroke: none; fill-rule: nonzero; fill: rgb(0.784314%,0.784314%,0.784314%); opacity: 1;" d="M 420.06871 9.774841 C 428.883636 12.891388 437.717255 15.993561 446.326172 19.659363 C 460.071075 25.540405 472.069229 34.619308 484.973801 42.037766 C 506.949554 55.740143 529.365021 68.767075 551.023758 82.961929 C 550.674622 106.320404 551.689331 129.717163 550.522446 153.055817 C 526.998001 153.222504 503.468521 152.567032 479.955368 153.129288 C 475.018372 151.99852 471.971878 156.172531 468.425552 158.582764 C 495.941254 159.467041 523.477661 158.78569 551.006088 159.009064 C 550.98497 168.663727 551.005707 178.321198 550.997559 187.979614 C 541.99321 187.989868 532.997559 188.00267 524.006424 188.018005 C 523.996033 204.357208 523.999542 220.697159 523.99881 237.0392 C 512.840637 242.134109 499.977005 244.964951 487.996048 240.958817 C 475.570175 238.720398 465.260605 229.231232 460.103073 217.963959 C 456.510376 210.813934 455.774857 202.700424 454.084946 194.990952 C 442.720581 194.986938 431.364151 194.988068 420.008057 194.995514 C 419.988861 159.332535 419.988342 123.671143 420.008255 88.009033 C 445.030304 87.772369 470.058899 88.340515 495.080246 87.970047 C 498.444214 87.880814 500.873657 85.093048 503.661255 83.55983 C 475.790894 82.377945 447.888855 83.277679 420.006973 82.990936 C 420.015091 58.585007 419.91362 34.180054 420.06871 9.774841 Z M 420.06871 9.774841 "/>
<path style="fill: none; stroke-width: 0.1; stroke-linecap: butt; stroke-linejoin: miter; stroke: rgb(99.607849%,99.607849%,99.607849%); opacity: 1;stroke-miterlimit: 10;" d="M 339.073761 41.769424 C 351.87944 46.806046 364.458939 52.395828 377.024124 58.004044 C 376.975113 59.271194 376.929993 60.539062 376.888763 61.807663 C 364.304398 67.628586 351.705002 73.418213 338.998489 78.965866 C 338.968872 66.566101 338.971268 54.167831 339.073761 41.769424 Z M 339.073761 41.769424 " transform="matrix(1,0,0,1,0,0)"/>
<path style="stroke: none; fill-rule: nonzero; fill: rgb(99.607849%,99.607849%,99.607849%); opacity: 1;" d="M 339.073761 41.769424 C 351.87944 46.806046 364.458939 52.395828 377.024124 58.004044 C 376.975113 59.271194 376.929993 60.539062 376.888763 61.807663 C 364.304398 67.628586 351.705002 73.418213 338.998489 78.965866 C 338.968872 66.566101 338.971268 54.167831 339.073761 41.769424 Z M 339.073761 41.769424 "/>
<path style="fill: none; stroke-width: 0.1; stroke-linecap: butt; stroke-linejoin: miter; stroke: rgb(0.784314%,0.784314%,0.784314%); opacity: 1;stroke-miterlimit: 10;" d="M 345.072113 50.653564 C 352.911072 53.391281 360.576401 56.59758 368.244705 59.778198 C 360.534012 63.296677 352.795517 66.752518 344.987396 70.044281 C 344.99678 63.578842 345.000687 57.116806 345.072113 50.653564 Z M 345.072113 50.653564 " transform="matrix(1,0,0,1,0,0)"/>
<path style="stroke: none; fill-rule: nonzero; fill: rgb(0.784314%,0.784314%,0.784314%); opacity: 1;" d="M 345.072113 50.653564 C 352.911072 53.391281 360.576401 56.59758 368.244705 59.778198 C 360.534012 63.296677 352.795517 66.752518 344.987396 70.044281 C 344.99678 63.578842 345.000687 57.116806 345.072113 50.653564 Z M 345.072113 50.653564 "/>
<path style="fill: none; stroke-width: 0.1; stroke-linecap: butt; stroke-linejoin: miter; stroke: rgb(0.784314%,0.784314%,0.784314%); opacity: 1;stroke-miterlimit: 10;" d="M 169.933609 55.957596 C 169.998184 100.980042 170.106064 146.005585 169.948303 191.026535 C 170.036316 203.431015 165.2883 215.369781 158.642334 225.649872 C 143.020248 248.946884 105.802048 251.319702 86.175064 231.839539 C 75.921265 222.720474 70.946152 209.269821 68.560669 196.089142 C 46.042206 195.92662 23.524384 196.021225 1.00592 195.995667 C 1.001572 170.364273 0.952591 144.734619 1.038513 119.10466 C 20.016998 116.104111 39.037308 113.342285 57.951721 109.953888 C 58.023956 127.967667 57.99585 145.981552 58.006287 163.997086 C 59.753922 163.997696 63.249191 163.998901 64.996826 163.999496 C 64.998016 145.337692 64.9841 126.677811 65.029724 108.017654 C 81.141647 105.002716 97.319 102.345245 113.399338 99.158218 C 114.500153 120.753479 113.86499 142.383667 113.999725 163.996948 C 115.749313 163.997574 119.248489 163.99884 120.998077 163.999466 C 121.03891 140.399414 120.893799 116.800491 121.105591 93.202179 C 137.593811 81.066086 153.375534 68.002823 169.933609 55.957596 Z M 169.933609 55.957596 " transform="matrix(1,0,0,1,0,0)"/>
<path style="stroke: none; fill-rule: nonzero; fill: rgb(0.784314%,0.784314%,0.784314%); opacity: 1;" d="M 169.933609 55.957596 C 169.998184 100.980042 170.106064 146.005585 169.948303 191.026535 C 170.036316 203.431015 165.2883 215.369781 158.642334 225.649872 C 143.020248 248.946884 105.802048 251.319702 86.175064 231.839539 C 75.921265 222.720474 70.946152 209.269821 68.560669 196.089142 C 46.042206 195.92662 23.524384 196.021225 1.00592 195.995667 C 1.001572 170.364273 0.952591 144.734619 1.038513 119.10466 C 20.016998 116.104111 39.037308 113.342285 57.951721 109.953888 C 58.023956 127.967667 57.99585 145.981552 58.006287 163.997086 C 59.753922 163.997696 63.249191 163.998901 64.996826 163.999496 C 64.998016 145.337692 64.9841 126.677811 65.029724 108.017654 C 81.141647 105.002716 97.319 102.345245 113.399338 99.158218 C 114.500153 120.753479 113.86499 142.383667 113.999725 163.996948 C 115.749313 163.997574 119.248489 163.99884 120.998077 163.999466 C 121.03891 140.399414 120.893799 116.800491 121.105591 93.202179 C 137.593811 81.066086 153.375534 68.002823 169.933609 55.957596 Z M 169.933609 55.957596 "/>
<path style="fill: none; stroke-width: 0.1; stroke-linecap: butt; stroke-linejoin: miter; stroke: rgb(0.784314%,0.784314%,0.784314%); opacity: 1;stroke-miterlimit: 10;" d="M 556.015839 84.753387 C 581.040314 86.667267 605.957687 89.852432 630.961105 92.083313 C 631.042511 124.734726 630.995163 157.385681 630.99147 190.038132 C 605.981888 190.426453 581.012802 188.586777 556.008286 188.976395 C 555.994492 154.234573 555.975494 119.494308 556.015839 84.753387 Z M 556.015839 84.753387 " transform="matrix(1,0,0,1,0,0)"/>
<path style="stroke: none; fill-rule: nonzero; fill: rgb(0.784314%,0.784314%,0.784314%); opacity: 1;" d="M 556.015839 84.753387 C 581.040314 86.667267 605.957687 89.852432 630.961105 92.083313 C 631.042511 124.734726 630.995163 157.385681 630.99147 190.038132 C 605.981888 190.426453 581.012802 188.586777 556.008286 188.976395 C 555.994492 154.234573 555.975494 119.494308 556.015839 84.753387 Z M 556.015839 84.753387 "/>
<path style="fill: none; stroke-width: 0.1; stroke-linecap: butt; stroke-linejoin: miter; stroke: rgb(99.607849%,99.607849%,99.607849%); opacity: 1;stroke-miterlimit: 10;" d="M 564.017807 94.993881 C 583.668686 96.465576 603.321213 97.95343 622.994156 99.146164 C 622.499603 125.772049 623.720016 152.373047 624.047577 178.989227 C 604.030334 179.018967 584.017502 179.016541 564.006866 178.98468 C 563.99971 150.986816 563.965302 122.990631 564.017807 94.993881 Z M 564.017807 94.993881 " transform="matrix(1,0,0,1,0,0)"/>
<path style="stroke: none; fill-rule: nonzero; fill: rgb(99.607849%,99.607849%,99.607849%); opacity: 1;" d="M 564.017807 94.993881 C 583.668686 96.465576 603.321213 97.95343 622.994156 99.146164 C 622.499603 125.772049 623.720016 152.373047 624.047577 178.989227 C 604.030334 179.018967 584.017502 179.016541 564.006866 178.98468 C 563.99971 150.986816 563.965302 122.990631 564.017807 94.993881 Z M 564.017807 94.993881 "/>
<path style="fill: none; stroke-width: 0.1; stroke-linecap: butt; stroke-linejoin: miter; stroke: rgb(0.784314%,0.784314%,0.784314%); opacity: 1;stroke-miterlimit: 10;" d="M 570.018845 103.903748 C 585.673996 104.818451 601.324753 105.856323 616.966797 107.060135 C 617.034531 128.702209 617.009583 150.34404 616.983719 171.98761 C 601.321548 172.014908 585.664795 172.015213 570.011047 171.991638 C 569.982101 149.294632 569.972595 126.599396 570.018845 103.903748 Z M 570.018845 103.903748 " transform="matrix(1,0,0,1,0,0)"/>
<path style="stroke: none; fill-rule: nonzero; fill: rgb(0.784314%,0.784314%,0.784314%); opacity: 1;" d="M 570.018845 103.903748 C 585.673996 104.818451 601.324753 105.856323 616.966797 107.060135 C 617.034531 128.702209 617.009583 150.34404 616.983719 171.98761 C 601.321548 172.014908 585.664795 172.015213 570.011047 171.991638 C 569.982101 149.294632 569.972595 126.599396 570.018845 103.903748 Z M 570.018845 103.903748 "/>
<path style="fill: none; stroke-width: 0.1; stroke-linecap: butt; stroke-linejoin: miter; stroke: rgb(99.607849%,99.607849%,99.607849%); opacity: 1;stroke-miterlimit: 10;" d="M 339.072495 106.769211 C 351.878845 111.805161 364.458527 117.395737 377.024261 123.004028 C 376.975113 124.269653 376.929749 125.536819 376.888153 126.805527 C 364.30896 132.651688 351.672882 138.374359 339.010101 144.034134 C 338.97113 131.610962 338.970261 119.189865 339.072495 106.769211 Z M 339.072495 106.769211 " transform="matrix(1,0,0,1,0,0)"/>
<path style="stroke: none; fill-rule: nonzero; fill: rgb(99.607849%,99.607849%,99.607849%); opacity: 1;" d="M 339.072495 106.769211 C 351.878845 111.805161 364.458527 117.395737 377.024261 123.004028 C 376.975113 124.269653 376.929749 125.536819 376.888153 126.805527 C 364.30896 132.651688 351.672882 138.374359 339.010101 144.034134 C 338.97113 131.610962 338.970261 119.189865 339.072495 106.769211 Z M 339.072495 106.769211 "/>
<path style="fill: none; stroke-width: 0.1; stroke-linecap: butt; stroke-linejoin: miter; stroke: rgb(0.784314%,0.784314%,0.784314%); opacity: 1;stroke-miterlimit: 10;" d="M 345.048996 115.819992 C 352.695175 118.359802 360.228653 121.259415 367.517197 124.703949 C 360.224457 128.607697 352.609818 131.84053 344.997803 135.052124 C 344.990677 128.637833 344.99353 122.230164 345.048996 115.819992 Z M 345.048996 115.819992 " transform="matrix(1,0,0,1,0,0)"/>
<path style="stroke: none; fill-rule: nonzero; fill: rgb(0.784314%,0.784314%,0.784314%); opacity: 1;" d="M 345.048996 115.819992 C 352.695175 118.359802 360.228653 121.259415 367.517197 124.703949 C 360.224457 128.607697 352.609818 131.84053 344.997803 135.052124 C 344.990677 128.637833 344.99353 122.230164 345.048996 115.819992 Z M 345.048996 115.819992 "/>
<path style="fill: none; stroke-width: 0.1; stroke-linecap: butt; stroke-linejoin: miter; stroke: rgb(0.784314%,0.784314%,0.784314%); opacity: 1;stroke-miterlimit: 10;" d="M 527.895584 192.994537 C 535.762405 192.987762 543.643387 192.98851 551.524429 193.050217 C 549.53685 208.459503 542.739288 223.702484 529.493973 232.664322 C 528.050629 219.49382 527.921982 206.22702 527.895584 192.994537 Z M 527.895584 192.994537 " transform="matrix(1,0,0,1,0,0)"/>
<path style="stroke: none; fill-rule: nonzero; fill: rgb(0.784314%,0.784314%,0.784314%); opacity: 1;" d="M 527.895584 192.994537 C 535.762405 192.987762 543.643387 192.98851 551.524429 193.050217 C 549.53685 208.459503 542.739288 223.702484 529.493973 232.664322 C 528.050629 219.49382 527.921982 206.22702 527.895584 192.994537 Z M 527.895584 192.994537 "/>
<path style="fill: none; stroke-width: 0.1; stroke-linecap: butt; stroke-linejoin: miter; stroke: rgb(0.784314%,0.784314%,0.784314%); opacity: 1;stroke-miterlimit: 10;" d="M 350.440979 209.1996 C 365.139832 208.938614 379.84787 208.859467 394.552414 209.143295 C 377.207428 239.765762 358.889664 269.843994 340.909302 300.099228 C 360.372238 332.874817 380.482544 365.26712 400.108047 397.948532 C 385.435699 398.024948 370.767563 398.052246 356.100861 397.958267 C 343.356384 377.93512 331.255035 357.50943 318.336502 337.599396 C 305.874039 357.193878 293.899033 377.096344 281.841644 396.94252 C 267.092636 397.019318 252.345428 397.099106 237.601059 396.884949 C 248.547928 377.494797 260.605438 358.741058 271.314529 339.218124 C 266.528687 339.105576 261.766815 339.037445 256.99231 338.936798 C 248.666306 325.140594 240.279953 311.362854 232.657471 297.16127 C 211.147659 296.873352 189.637222 296.976746 168.128372 297.044907 C 160.46434 311.238968 152.580215 325.322678 144.08194 339.038193 C 129.282761 338.988403 114.484726 339.085037 99.688126 338.898712 C 124.92659 295.805298 150.982635 253.195297 176.10788 210.036484 C 192.365356 209.968781 208.623749 209.959198 224.883911 210.031586 C 245.291656 244.515198 265.876541 278.894089 286.415344 313.301483 C 289.294312 308.68985 293.231781 304.469345 294.673599 299.152786 C 277.584274 269.189301 259.008865 240.02124 241.862701 210.059387 C 256.855789 209.953415 271.850571 209.951172 286.847458 210.076736 C 297.485245 227.086884 307.709961 244.353119 318.441544 261.30574 C 329.620941 244.263016 339.931564 226.658813 350.440979 209.1996 Z M 350.440979 209.1996 " transform="matrix(1,0,0,1,0,0)"/>
<path style="stroke: none; fill-rule: nonzero; fill: rgb(0.784314%,0.784314%,0.784314%); opacity: 1;" d="M 350.440979 209.1996 C 365.139832 208.938614 379.84787 208.859467 394.552414 209.143295 C 377.207428 239.765762 358.889664 269.843994 340.909302 300.099228 C 360.372238 332.874817 380.482544 365.26712 400.108047 397.948532 C 385.435699 398.024948 370.767563 398.052246 356.100861 397.958267 C 343.356384 377.93512 331.255035 357.50943 318.336502 337.599396 C 305.874039 357.193878 293.899033 377.096344 281.841644 396.94252 C 267.092636 397.019318 252.345428 397.099106 237.601059 396.884949 C 248.547928 377.494797 260.605438 358.741058 271.314529 339.218124 C 266.528687 339.105576 261.766815 339.037445 256.99231 338.936798 C 248.666306 325.140594 240.279953 311.362854 232.657471 297.16127 C 211.147659 296.873352 189.637222 296.976746 168.128372 297.044907 C 160.46434 311.238968 152.580215 325.322678 144.08194 339.038193 C 129.282761 338.988403 114.484726 339.085037 99.688126 338.898712 C 124.92659 295.805298 150.982635 253.195297 176.10788 210.036484 C 192.365356 209.968781 208.623749 209.959198 224.883911 210.031586 C 245.291656 244.515198 265.876541 278.894089 286.415344 313.301483 C 289.294312 308.68985 293.231781 304.469345 294.673599 299.152786 C 277.584274 269.189301 259.008865 240.02124 241.862701 210.059387 C 256.855789 209.953415 271.850571 209.951172 286.847458 210.076736 C 297.485245 227.086884 307.709961 244.353119 318.441544 261.30574 C 329.620941 244.263016 339.931564 226.658813 350.440979 209.1996 Z M 350.440979 209.1996 "/>
<path style="fill: none; stroke-width: 0.1; stroke-linecap: butt; stroke-linejoin: miter; stroke: rgb(0.784314%,0.784314%,0.784314%); opacity: 1;stroke-miterlimit: 10;" d="M 400.05397 210.962189 C 408.635727 210.946442 417.253769 210.570435 425.823959 211.308731 C 438.051056 220.608551 447.344131 233.111526 458.208588 243.884888 C 448.09729 243.982941 437.991714 244.022888 427.890121 244.114944 C 424.286835 240.705704 420.727966 237.260696 417.164886 233.821991 C 410.463501 244.185623 403.652878 254.477386 396.919815 264.820129 C 419.336487 268.817902 441.776367 272.706894 464.26059 276.315628 C 448.606369 306.287613 432.097336 335.813019 416.627075 365.88031 C 406.52449 365.978897 396.426361 365.980698 386.332703 365.868164 C 378.932083 353.188187 370.948303 340.860748 363.600128 328.152084 C 374.316681 328.00415 385.037796 327.984192 395.762863 328.059555 C 396.979813 331.512878 398.236008 334.955185 399.598328 338.358795 C 407.583054 324.635086 414.960617 310.566284 422.984894 296.865311 C 399.960999 292.652664 376.861435 288.877731 353.830719 284.713379 C 368.978928 259.969055 384.52037 235.464691 400.05397 210.962189 Z M 400.05397 210.962189 " transform="matrix(1,0,0,1,0,0)"/>
<path style="stroke: none; fill-rule: nonzero; fill: rgb(0.784314%,0.784314%,0.784314%); opacity: 1;" d="M 400.05397 210.962189 C 408.635727 210.946442 417.253769 210.570435 425.823959 211.308731 C 438.051056 220.608551 447.344131 233.111526 458.208588 243.884888 C 448.09729 243.982941 437.991714 244.022888 427.890121 244.114944 C 424.286835 240.705704 420.727966 237.260696 417.164886 233.821991 C 410.463501 244.185623 403.652878 254.477386 396.919815 264.820129 C 419.336487 268.817902 441.776367 272.706894 464.26059 276.315628 C 448.606369 306.287613 432.097336 335.813019 416.627075 365.88031 C 406.52449 365.978897 396.426361 365.980698 386.332703 365.868164 C 378.932083 353.188187 370.948303 340.860748 363.600128 328.152084 C 374.316681 328.00415 385.037796 327.984192 395.762863 328.059555 C 396.979813 331.512878 398.236008 334.955185 399.598328 338.358795 C 407.583054 324.635086 414.960617 310.566284 422.984894 296.865311 C 399.960999 292.652664 376.861435 288.877731 353.830719 284.713379 C 368.978928 259.969055 384.52037 235.464691 400.05397 210.962189 Z M 400.05397 210.962189 "/>
<path style="fill: none; stroke-width: 0.1; stroke-linecap: butt; stroke-linejoin: miter; stroke: rgb(99.607849%,99.607849%,99.607849%); opacity: 1;stroke-miterlimit: 10;" d="M 184.866745 269.969421 C 190.094482 261.542267 195.101074 252.974518 200.569473 244.699936 C 205.538406 253.057953 210.644073 261.336792 215.341934 269.855057 C 205.181534 269.990158 195.023468 270.005783 184.866745 269.969421 Z M 184.866745 269.969421 " transform="matrix(1,0,0,1,0,0)"/>
<path style="stroke: none; fill-rule: nonzero; fill: rgb(99.607849%,99.607849%,99.607849%); opacity: 1;" d="M 184.866745 269.969421 C 190.094482 261.542267 195.101074 252.974518 200.569473 244.699936 C 205.538406 253.057953 210.644073 261.336792 215.341934 269.855057 C 205.181534 269.990158 195.023468 270.005783 184.866745 269.969421 Z M 184.866745 269.969421 "/>
<path style="fill: none; stroke-width: 0.1; stroke-linecap: butt; stroke-linejoin: miter; stroke: rgb(0.784314%,0.784314%,0.784314%); opacity: 1;stroke-miterlimit: 10;" d="M 237.412064 401.230713 C 252.239548 400.913666 267.073212 400.930191 281.906723 401.037949 C 294.209946 420.844849 306.400482 440.72113 318.691315 460.537018 C 331.380371 441.395142 342.910492 421.508926 355.132614 402.06749 C 370.12999 401.952148 385.129715 401.95723 400.132751 402.058731 C 380.914215 433.287628 362.11937 464.780365 342.868408 495.986328 C 340.399353 499.029617 343.327011 502.416748 344.804703 505.126114 C 362.090805 532.955139 378.922882 561.062576 396.118301 588.948929 C 380.847488 589.041946 365.579025 589.072983 350.314651 588.843445 C 339.822327 571.360428 329.656723 553.66803 318.683365 536.483994 C 307.731873 553.959747 296.903519 571.513123 285.844467 588.922333 C 271.095322 589.023926 256.347275 589.111435 241.602936 588.871796 C 243.956802 585.105377 246.510559 581.454285 249.030243 577.807297 C 241.555573 565.603561 233.964279 553.472229 226.630432 541.185654 C 205.464447 540.857269 184.296921 540.974472 163.131424 541.037399 C 155.595459 555.132187 147.219025 568.757675 139.6577 582.840576 C 124.922241 583.041718 110.184174 583.133331 95.450821 582.857086 C 120.105423 539.594086 146.275131 497.198624 171.33432 454.163422 C 187.854004 453.911423 204.376236 453.958405 220.899689 454.032532 C 237.263062 482.616943 254.423416 510.738419 270.770493 539.332214 C 279.461319 526.215546 286.828125 512.282547 295.050247 498.875427 C 276.208466 466.109756 256.17749 434.034607 237.412064 401.230713 Z M 237.412064 401.230713 " transform="matrix(1,0,0,1,0,0)"/>
<path style="stroke: none; fill-rule: nonzero; fill: rgb(0.784314%,0.784314%,0.784314%); opacity: 1;" d="M 237.412064 401.230713 C 252.239548 400.913666 267.073212 400.930191 281.906723 401.037949 C 294.209946 420.844849 306.400482 440.72113 318.691315 460.537018 C 331.380371 441.395142 342.910492 421.508926 355.132614 402.06749 C 370.12999 401.952148 385.129715 401.95723 400.132751 402.058731 C 380.914215 433.287628 362.11937 464.780365 342.868408 495.986328 C 340.399353 499.029617 343.327011 502.416748 344.804703 505.126114 C 362.090805 532.955139 378.922882 561.062576 396.118301 588.948929 C 380.847488 589.041946 365.579025 589.072983 350.314651 588.843445 C 339.822327 571.360428 329.656723 553.66803 318.683365 536.483994 C 307.731873 553.959747 296.903519 571.513123 285.844467 588.922333 C 271.095322 589.023926 256.347275 589.111435 241.602936 588.871796 C 243.956802 585.105377 246.510559 581.454285 249.030243 577.807297 C 241.555573 565.603561 233.964279 553.472229 226.630432 541.185654 C 205.464447 540.857269 184.296921 540.974472 163.131424 541.037399 C 155.595459 555.132187 147.219025 568.757675 139.6577 582.840576 C 124.922241 583.041718 110.184174 583.133331 95.450821 582.857086 C 120.105423 539.594086 146.275131 497.198624 171.33432 454.163422 C 187.854004 453.911423 204.376236 453.958405 220.899689 454.032532 C 237.263062 482.616943 254.423416 510.738419 270.770493 539.332214 C 279.461319 526.215546 286.828125 512.282547 295.050247 498.875427 C 276.208466 466.109756 256.17749 434.034607 237.412064 401.230713 Z M 237.412064 401.230713 "/>
<path style="fill: none; stroke-width: 0.1; stroke-linecap: butt; stroke-linejoin: miter; stroke: rgb(0.784314%,0.784314%,0.784314%); opacity: 1;stroke-miterlimit: 10;" d="M 128.137314 438.068054 C 142.86293 437.970764 157.591019 437.899277 172.318268 438.101196 C 143.637222 487.471222 114.280289 536.452194 85.567856 585.807251 C 70.423279 586.079346 55.276703 586.041931 40.1315 585.950119 C 28.611282 566.694992 16.824982 547.595261 5.577042 528.180679 C 20.974335 527.90918 36.374359 527.927719 51.77301 528.105286 C 54.935913 534.847183 58.22316 541.532578 61.518341 548.218109 C 84.394882 511.921753 105.709702 474.648438 128.137314 438.068054 Z M 128.137314 438.068054 " transform="matrix(1,0,0,1,0,0)"/>
<path style="stroke: none; fill-rule: nonzero; fill: rgb(0.784314%,0.784314%,0.784314%); opacity: 1;" d="M 128.137314 438.068054 C 142.86293 437.970764 157.591019 437.899277 172.318268 438.101196 C 143.637222 487.471222 114.280289 536.452194 85.567856 585.807251 C 70.423279 586.079346 55.276703 586.041931 40.1315 585.950119 C 28.611282 566.694992 16.824982 547.595261 5.577042 528.180679 C 20.974335 527.90918 36.374359 527.927719 51.77301 528.105286 C 54.935913 534.847183 58.22316 541.532578 61.518341 548.218109 C 84.394882 511.921753 105.709702 474.648438 128.137314 438.068054 Z M 128.137314 438.068054 "/>
<path style="fill: none; stroke-width: 0.1; stroke-linecap: butt; stroke-linejoin: miter; stroke: rgb(99.607849%,99.607849%,99.607849%); opacity: 1;stroke-miterlimit: 10;" d="M 177.970535 513.9832 C 183.839172 504.675995 189.695618 495.362228 195.56012 486.05484 C 200.545517 495.460922 205.908173 504.659134 211.077087 513.96759 C 200.039108 514.0065 189.004669 514.012802 177.970535 513.9832 Z M 177.970535 513.9832 " transform="matrix(1,0,0,1,0,0)"/>
<path style="stroke: none; fill-rule: nonzero; fill: rgb(99.607849%,99.607849%,99.607849%); opacity: 1;" d="M 177.970535 513.9832 C 183.839172 504.675995 189.695618 495.362228 195.56012 486.05484 C 200.545517 495.460922 205.908173 504.659134 211.077087 513.96759 C 200.039108 514.0065 189.004669 514.012802 177.970535 513.9832 Z M 177.970535 513.9832 "/>
</g>
</svg>
