<?xml version="1.0" encoding="UTF-8"?>
<svg xmlns="http://www.w3.org/2000/svg" xmlns:xlink="http://www.w3.org/1999/xlink" width="470pt" height="390pt" viewBox="0 0 470 390" version="1.1">
<defs>
<clipPath id="clip0">
  <rect width="470" height="390"/>
</clipPath>
</defs>
<g id="surface0" clip-path="url(#clip0)">
<path style="fill: none; stroke-width: 0.1; stroke-linecap: butt; stroke-linejoin: miter; stroke: rgb(100%,100%,100%); opacity: 1;stroke-miterlimit: 10;" d="M 0 0 L 470 0 L 470 390 L 0 390 L 0 0 Z M 0 0 " transform="matrix(1,0,0,1,0,0)"/>
<path style="stroke: none; fill-rule: nonzero; fill: rgb(100%,100%,100%); opacity: 1;" d="M 0 0 L 470 0 L 470 390 L 0 390 L 0 0 Z M 0 0 "/>
<path style="fill: none; stroke-width: 0.1; stroke-linecap: butt; stroke-linejoin: miter; stroke: rgb(0%,0%,0%); opacity: 1;stroke-miterlimit: 10;" d="M 349.368179 2.174347 C 364.038391 1.940063 378.715271 1.893646 393.391586 2.097961 C 377.212906 31.644562 359.449005 60.308533 342.088104 89.171738 C 340.922714 91.116913 339.804443 93.509933 341.409332 95.570511 C 360.426895 127.491196 380.063141 159.047134 399.105225 190.957703 C 384.416916 191.043655 369.733002 191.040146 355.050262 190.966568 C 342.35788 171.035782 330.445023 150.618118 317.416122 130.899948 C 304.709854 150.250473 292.969315 170.209259 280.874695 189.942291 C 266.11644 190.028137 251.360291 190.096695 236.606491 189.893555 C 247.470062 170.46048 259.456161 151.683197 270.262009 132.215576 C 265.517731 132.102173 260.797241 132.014069 256.064163 131.912125 C 247.585052 118.199493 239.395172 104.304794 231.618607 90.182022 C 210.119217 89.85556 188.618591 89.97345 167.119843 90.044678 C 159.668472 104.357544 151.654709 118.380173 143.009293 132.00676 C 128.238922 132.035568 113.470215 132.053589 98.702118 131.913879 C 123.93602 88.828659 149.768539 46.095825 175.117157 3.07782 C 190.738632 3.177368 206.38588 2.414032 221.995239 3.112381 C 224.654968 3.210464 225.591797 6.265564 226.994095 8.002258 C 246.436264 40.851898 265.868698 73.70845 285.544693 106.42067 C 288.363693 101.863312 291.637711 97.462921 293.311493 92.322937 C 291.791977 87.453171 288.457657 83.4216 286.035873 78.988556 C 271.116379 53.593521 255.436951 28.644623 240.879776 3.03981 C 255.862839 2.962967 270.84726 2.936722 285.833939 3.081299 C 296.628006 20.009079 306.603195 37.448044 317.544373 54.281479 C 328.463654 37.104126 338.966873 19.669174 349.368179 2.174347 Z M 349.368179 2.174347 " transform="matrix(1,0,0,1,0,0)"/>
<path style="stroke: none; fill-rule: nonzero; fill: rgb(0%,0%,0%); opacity: 1;" d="M 349.368179 2.174347 C 364.038391 1.940063 378.715271 1.893646 393.391586 2.097961 C 377.212906 31.644562 359.449005 60.308533 342.088104 89.171738 C 340.922714 91.116913 339.804443 93.509933 341.409332 95.570511 C 360.426895 127.491196 380.063141 159.047134 399.105225 190.957703 C 384.416916 191.043655 369.733002 191.040146 355.050262 190.966568 C 342.35788 171.035782 330.445023 150.618118 317.416122 130.899948 C 304.709854 150.250473 292.969315 170.209259 280.874695 189.942291 C 266.11644 190.028137 251.360291 190.096695 236.606491 189.893555 C 247.470062 170.46048 259.456161 151.683197 270.262009 132.215576 C 265.517731 132.102173 260.797241 132.014069 256.064163 131.912125 C 247.585052 118.199493 239.395172 104.304794 231.618607 90.182022 C 210.119217 89.85556 188.618591 89.97345 167.119843 90.044678 C 159.668472 104.357544 151.654709 118.380173 143.009293 132.00676 C 128.238922 132.035568 113.470215 132.053589 98.702118 131.913879 C 123.93602 88.828659 149.768539 46.095825 175.117157 3.07782 C 190.738632 3.177368 206.38588 2.414032 221.995239 3.112381 C 224.654968 3.210464 225.591797 6.265564 226.994095 8.002258 C 246.436264 40.851898 265.868698 73.70845 285.544693 106.42067 C 288.363693 101.863312 291.637711 97.462921 293.311493 92.322937 C 291.791977 87.453171 288.457657 83.4216 286.035873 78.988556 C 271.116379 53.593521 255.436951 28.644623 240.879776 3.03981 C 255.862839 2.962967 270.84726 2.936722 285.833939 3.081299 C 296.628006 20.009079 306.603195 37.448044 317.544373 54.281479 C 328.463654 37.104126 338.966873 19.669174 349.368179 2.174347 Z M 349.368179 2.174347 "/>
<path style="fill: none; stroke-width: 0.1; stroke-linecap: butt; stroke-linejoin: miter; stroke: rgb(0%,0%,0%); opacity: 1;stroke-miterlimit: 10;" d="M 399.090439 3.945801 C 407.325272 3.934448 415.580658 3.700943 423.81189 4.327423 C 436.984131 12.862518 446.260483 25.92334 457.224487 36.934189 C 447.228271 37.046219 437.211868 37.452148 427.243713 36.632019 C 423.14595 33.997086 419.843063 30.363785 416.348038 27.023178 C 409.338104 37.125702 402.670227 47.459473 395.952271 57.754898 C 418.378754 61.620941 440.794357 65.556061 463.250488 69.258255 C 447.740402 99.323761 431.174805 128.833191 415.664078 158.896027 C 405.477966 158.933411 395.297073 158.95282 385.119781 159.009857 C 377.951431 146.174988 369.764954 133.943146 362.548325 121.138077 C 373.274368 121.023773 384.004517 121.006927 394.738831 121.057831 C 396.009857 124.458664 397.347626 127.835098 398.683762 131.213333 C 406.407318 117.467514 413.893311 103.58432 421.901352 90.000214 C 398.8694 85.776947 375.744843 82.08194 352.746246 77.686035 C 368.031784 53.004547 383.489838 28.429733 399.090439 3.945801 Z M 399.090439 3.945801 " transform="matrix(1,0,0,1,0,0)"/>
<path style="stroke: none; fill-rule: nonzero; fill: rgb(0%,0%,0%); opacity: 1;" d="M 399.090439 3.945801 C 407.325272 3.934448 415.580658 3.700943 423.81189 4.327423 C 436.984131 12.862518 446.260483 25.92334 457.224487 36.934189 C 447.228271 37.046219 437.211868 37.452148 427.243713 36.632019 C 423.14595 33.997086 419.843063 30.363785 416.348038 27.023178 C 409.338104 37.125702 402.670227 47.459473 395.952271 57.754898 C 418.378754 61.620941 440.794357 65.556061 463.250488 69.258255 C 447.740402 99.323761 431.174805 128.833191 415.664078 158.896027 C 405.477966 158.933411 395.297073 158.95282 385.119781 159.009857 C 377.951431 146.174988 369.764954 133.943146 362.548325 121.138077 C 373.274368 121.023773 384.004517 121.006927 394.738831 121.057831 C 396.009857 124.458664 397.347626 127.835098 398.683762 131.213333 C 406.407318 117.467514 413.893311 103.58432 421.901352 90.000214 C 398.8694 85.776947 375.744843 82.08194 352.746246 77.686035 C 368.031784 53.004547 383.489838 28.429733 399.090439 3.945801 Z M 399.090439 3.945801 "/>
<path style="fill: none; stroke-width: 0.1; stroke-linecap: butt; stroke-linejoin: miter; stroke: rgb(100%,100%,100%); opacity: 1;stroke-miterlimit: 10;" d="M 183.882233 62.988083 C 189.024414 54.506317 194.029236 45.930054 199.571609 37.69931 C 204.553101 46.055023 209.644287 54.347885 214.344559 62.86853 C 204.188248 62.977692 194.034698 63.009857 183.882233 62.988083 Z M 183.882233 62.988083 " transform="matrix(1,0,0,1,0,0)"/>
<path style="stroke: none; fill-rule: nonzero; fill: rgb(100%,100%,100%); opacity: 1;" d="M 183.882233 62.988083 C 189.024414 54.506317 194.029236 45.930054 199.571609 37.69931 C 204.553101 46.055023 209.644287 54.347885 214.344559 62.86853 C 204.188248 62.977692 194.034698 63.009857 183.882233 62.988083 Z M 183.882233 62.988083 "/>
<path style="fill: none; stroke-width: 0.1; stroke-linecap: butt; stroke-linejoin: miter; stroke: rgb(0%,0%,0%); opacity: 1;stroke-miterlimit: 10;" d="M 236.67778 194.141769 C 251.418716 193.929306 266.163315 193.948486 280.908966 194.035843 C 293.2155 213.772522 305.360245 233.610275 317.749771 253.296082 C 330.467117 234.260895 341.887299 214.409653 354.105835 195.058578 C 369.103745 194.953964 384.103821 194.955215 399.107407 195.041656 C 380.237701 226.178406 361.2892 257.274719 342.329681 288.35173 C 339.575226 292.293594 342.792435 296.723648 344.893356 300.060486 C 361.930603 327.175262 378.377487 354.655762 395.114258 381.957413 C 379.769821 382.054016 364.428833 382.02005 349.089722 381.960892 C 338.872543 364.350647 328.825485 346.605576 317.483337 329.687668 C 306.704224 347.163116 295.806427 364.56546 284.856201 381.934433 C 270.165894 382.039001 255.47821 382.056686 240.79187 381.933197 C 243.002014 378.057968 245.740326 374.41069 247.395111 370.266037 C 240.648499 357.946121 232.553284 346.413239 225.635696 334.182938 C 204.462158 333.855026 183.287567 333.967026 162.114624 334.037308 C 154.610092 348.143341 146.497391 361.912491 138.702408 375.858643 C 124.012421 376.060699 109.321625 376.082474 94.633011 375.904999 C 118.91394 332.436005 145.454422 290.266861 170.19696 247.060181 C 186.75708 246.95694 203.317947 246.942245 219.880692 247.05394 C 236.396866 275.44426 253.470886 303.514755 269.606964 332.124298 C 278.725357 319.324905 285.65303 305.175903 294.051575 291.927902 C 275.347153 259.085815 254.847488 227.286865 236.67778 194.141769 Z M 236.67778 194.141769 " transform="matrix(1,0,0,1,0,0)"/>
<path style="stroke: none; fill-rule: nonzero; fill: rgb(0%,0%,0%); opacity: 1;" d="M 236.67778 194.141769 C 251.418716 193.929306 266.163315 193.948486 280.908966 194.035843 C 293.2155 213.772522 305.360245 233.610275 317.749771 253.296082 C 330.467117 234.260895 341.887299 214.409653 354.105835 195.058578 C 369.103745 194.953964 384.103821 194.955215 399.107407 195.041656 C 380.237701 226.178406 361.2892 257.274719 342.329681 288.35173 C 339.575226 292.293594 342.792435 296.723648 344.893356 300.060486 C 361.930603 327.175262 378.377487 354.655762 395.114258 381.957413 C 379.769821 382.054016 364.428833 382.02005 349.089722 381.960892 C 338.872543 364.350647 328.825485 346.605576 317.483337 329.687668 C 306.704224 347.163116 295.806427 364.56546 284.856201 381.934433 C 270.165894 382.039001 255.47821 382.056686 240.79187 381.933197 C 243.002014 378.057968 245.740326 374.41069 247.395111 370.266037 C 240.648499 357.946121 232.553284 346.413239 225.635696 334.182938 C 204.462158 333.855026 183.287567 333.967026 162.114624 334.037308 C 154.610092 348.143341 146.497391 361.912491 138.702408 375.858643 C 124.012421 376.060699 109.321625 376.082474 94.633011 375.904999 C 118.91394 332.436005 145.454422 290.266861 170.19696 247.060181 C 186.75708 246.95694 203.317947 246.942245 219.880692 247.05394 C 236.396866 275.44426 253.470886 303.514755 269.606964 332.124298 C 278.725357 319.324905 285.65303 305.175903 294.051575 291.927902 C 275.347153 259.085815 254.847488 227.286865 236.67778 194.141769 Z M 236.67778 194.141769 "/>
<path style="fill: none; stroke-width: 0.1; stroke-linecap: butt; stroke-linejoin: miter; stroke: rgb(0%,0%,0%); opacity: 1;stroke-miterlimit: 10;" d="M 127.164322 231.072968 C 141.874603 230.955627 156.586777 230.915741 171.298981 231.088699 C 142.756897 280.538345 113.304657 329.455521 84.679245 378.85556 C 69.498642 379.060043 54.317673 379.052536 39.137222 378.946014 C 27.581573 359.711624 15.812607 340.597809 4.590546 321.168198 C 20.02327 320.904861 35.457855 320.948593 50.892258 321.042328 C 54.01857 327.816742 57.168549 334.588928 60.635132 341.201614 C 83.308838 304.791733 104.653854 267.579178 127.164322 231.072968 Z M 127.164322 231.072968 " transform="matrix(1,0,0,1,0,0)"/>
<path style="stroke: none; fill-rule: nonzero; fill: rgb(0%,0%,0%); opacity: 1;" d="M 127.164322 231.072968 C 141.874603 230.955627 156.586777 230.915741 171.298981 231.088699 C 142.756897 280.538345 113.304657 329.455521 84.679245 378.85556 C 69.498642 379.060043 54.317673 379.052536 39.137222 378.946014 C 27.581573 359.711624 15.812607 340.597809 4.590546 321.168198 C 20.02327 320.904861 35.457855 320.948593 50.892258 321.042328 C 54.01857 327.816742 57.168549 334.588928 60.635132 341.201614 C 83.308838 304.791733 104.653854 267.579178 127.164322 231.072968 Z M 127.164322 231.072968 "/>
<path style="fill: none; stroke-width: 0.1; stroke-linecap: butt; stroke-linejoin: miter; stroke: rgb(100%,100%,100%); opacity: 1;stroke-miterlimit: 10;" d="M 176.978546 306.989426 C 182.836914 297.676056 188.608002 288.308716 194.556213 279.052963 C 199.619553 288.42363 204.790802 297.737228 210.038254 307.008224 C 199.015839 307.004105 187.997086 307.003174 176.978546 306.989426 Z M 176.978546 306.989426 " transform="matrix(1,0,0,1,0,0)"/>
<path style="stroke: none; fill-rule: nonzero; fill: rgb(100%,100%,100%); opacity: 1;" d="M 176.978546 306.989426 C 182.836914 297.676056 188.608002 288.308716 194.556213 279.052963 C 199.619553 288.42363 204.790802 297.737228 210.038254 307.008224 C 199.015839 307.004105 187.997086 307.003174 176.978546 306.989426 Z M 176.978546 306.989426 "/>
</g>
</svg>
